<?xml version="1.0" standalone="no"?>
<!DOCTYPE svg PUBLIC "-//W3C//DTD SVG 20010904//EN"
 "http://www.w3.org/TR/2001/REC-SVG-20010904/DTD/svg10.dtd">
<svg version="1.0" xmlns="http://www.w3.org/2000/svg"
 width="260.000000pt" height="260.000000pt" viewBox="0 0 260.000000 260.000000"
 preserveAspectRatio="xMidYMid meet">
<metadata>
Created by potrace 1.11, written by Peter Selinger 2001-2013
</metadata>
<g transform="translate(0.000000,260.000000) scale(0.100000,-0.100000)"
fill="#000000" stroke="none">
<path d="M350 1455 l0 -905 920 0 920 0 0 905 0 905 -920 0 -920 0 0 -905z
m650 405 l0 -280 280 0 280 0 0 280 0 280 145 0 145 0 0 -715 0 -715 -145 0
-145 0 0 315 0 315 -280 0 -280 0 0 -315 0 -315 -145 0 -145 0 0 715 0 715
145 0 145 0 0 -280z"/>
<path d="M340 340 l0 -140 925 0 925 0 0 140 0 140 -925 0 -925 0 0 -140z"/>
</g>
</svg>
